<svg aria-hidden="true" style="position:absolute;width:0;height:0" xmlns="http://www.w3.org/2000/svg" overflow="hidden"><defs><symbol id="instagram" viewBox="0 0 32 32"><path fill="var(--color1, #000)" d="M22.88 28.896H9.12c-3.296 0-6.016-2.72-6.016-6.016V9.12c0-3.296 2.72-6.016 6.016-6.016h13.76c3.296 0 6.016 2.72 6.016 6.016v13.76c0 3.296-2.72 6.016-6.016 6.016z"/><path fill="var(--color2, #fff)" d="M24.992 9.856h-1.728a.86.86 0 0 1-.864-.864V7.264a.86.86 0 0 1 .864-.864h1.728a.86.86 0 0 1 .864.864v1.728c-.032.48-.416.864-.864.864z"/><path fill="none" stroke="var(--color2, #fff)" stroke-miterlimit="10" stroke-width="1.92" d="M2.56 12.16h26.88"/><path stroke="var(--color2, #fff)" stroke-miterlimit="10" stroke-width="3.84" d="M21.6 16a5.6 5.6 0 1 1-11.2 0 5.6 5.6 0 0 1 11.2 0z"/></symbol><symbol id="facebook" viewBox="0 0 32 32"><path d="M19 6h5V0h-5c-3.86 0-7 3.14-7 7v3H8v6h4v16h6V16h5l1-6h-6V7c0-.542.458-1 1-1z"/></symbol><symbol id="twitter" viewBox="0 0 32 32"><path d="M32 7.075a12.941 12.941 0 0 1-3.769 1.031 6.601 6.601 0 0 0 2.887-3.631 13.21 13.21 0 0 1-4.169 1.594A6.565 6.565 0 0 0 22.155 4a6.563 6.563 0 0 0-6.563 6.563c0 .512.056 1.012.169 1.494A18.635 18.635 0 0 1 2.23 5.195a6.56 6.56 0 0 0-.887 3.3 6.557 6.557 0 0 0 2.919 5.463 6.565 6.565 0 0 1-2.975-.819v.081a6.565 6.565 0 0 0 5.269 6.437 6.574 6.574 0 0 1-2.968.112 6.588 6.588 0 0 0 6.131 4.563 13.17 13.17 0 0 1-9.725 2.719 18.568 18.568 0 0 0 10.069 2.95c12.075 0 18.681-10.006 18.681-18.681 0-.287-.006-.569-.019-.85A13.216 13.216 0 0 0 32 7.076z"/></symbol></defs></svg>