<svg aria-hidden="true" style="position:absolute;width:0;height:0" xmlns="http://www.w3.org/2000/svg" overflow="hidden"><defs><symbol id="audio" viewBox="0 0 24 32"><path d="M5.651 22.944a5.645 5.645 0 0 1-5.647-5.645v-3.761a5.646 5.646 0 0 1 5.647-5.645h1.882L16.945.365v30.106l-9.412-7.528H5.651zm18.823-7.526c0 3.503-2.406 6.421-5.649 7.26v-4.019a3.742 3.742 0 0 0 1.882-3.241c0-1.387-.76-2.588-1.882-3.241V8.158c3.243.84 5.649 3.757 5.649 7.26z"/></symbol><symbol id="heart" viewBox="0 0 34 32"><path d="M31.618 15.189L17.067 30.267 2.516 15.189a8.53 8.53 0 0 1 0-12.064 8.542 8.542 0 0 1 12.068 0l2.483 3.019 2.483-3.019a8.542 8.542 0 0 1 12.068 0 8.53 8.53 0 0 1 0 12.064z"/></symbol><symbol id="options" viewBox="0 0 34 32"><path d="M27.735 30.048H6.404A6.4 6.4 0 0 1 .002 23.65V12.988a6.4 6.4 0 0 1 6.402-6.396h1.623a17.03 17.03 0 0 0-2.607 4.533c-.676.358-1.15 1.045-1.15 1.862v10.662a2.13 2.13 0 0 0 2.133 2.131h21.331a2.13 2.13 0 0 0 2.133-2.131v-5.333l4.267-3.196v8.529a6.397 6.397 0 0 1-6.4 6.398zm-2.986-13.225a2.112 2.112 0 0 1-2.234.205 2.133 2.133 0 0 1-1.18-1.905v-2.135c-5.57 0-10.295 3.565-12.055 8.529a12.701 12.701 0 0 1-.745-4.262c0-7.068 5.732-12.796 12.8-12.796V2.326A2.133 2.133 0 0 1 24.749.624l8.533 6.396a2.13 2.13 0 0 1 0 3.409l-8.533 6.396z"/></symbol><symbol id="speach" viewBox="0 0 32 32"><path d="M26.007 25.973h-12l-4 5.997-4-5.997a5.998 5.998 0 0 1-6.001-5.997V5.983A5.998 5.998 0 0 1 6.007-.014h20a5.997 5.997 0 0 1 5.999 5.997v13.993a5.997 5.997 0 0 1-5.999 5.997z"/></symbol><symbol id="icon-instagram" viewBox="0 0 32 32"><path fill="var(--color1, #000)" d="M22.88 28.896H9.12c-3.296 0-6.016-2.72-6.016-6.016V9.12c0-3.296 2.72-6.016 6.016-6.016h13.76c3.296 0 6.016 2.72 6.016 6.016v13.76c0 3.296-2.72 6.016-6.016 6.016z"/><path fill="var(--color2, #fff)" d="M24.992 9.856h-1.728a.86.86 0 0 1-.864-.864V7.264a.86.86 0 0 1 .864-.864h1.728a.86.86 0 0 1 .864.864v1.728c-.032.48-.416.864-.864.864z"/><path fill="none" stroke="var(--color2, #fff)" stroke-miterlimit="10" stroke-width="1.92" d="M2.56 12.16h26.88"/><path stroke="var(--color2, #fff)" stroke-miterlimit="10" stroke-width="3.84" d="M21.6 16a5.6 5.6 0 1 1-11.2 0 5.6 5.6 0 0 1 11.2 0z"/></symbol><symbol id="icon-facebook" viewBox="0 0 32 32"><path d="M19 6h5V0h-5c-3.86 0-7 3.14-7 7v3H8v6h4v16h6V16h5l1-6h-6V7c0-.542.458-1 1-1z"/></symbol><symbol id="icon-twitter" viewBox="0 0 32 32"><path d="M32 7.075a12.941 12.941 0 0 1-3.769 1.031 6.601 6.601 0 0 0 2.887-3.631 13.21 13.21 0 0 1-4.169 1.594A6.565 6.565 0 0 0 22.155 4a6.563 6.563 0 0 0-6.563 6.563c0 .512.056 1.012.169 1.494A18.635 18.635 0 0 1 2.23 5.195a6.56 6.56 0 0 0-.887 3.3 6.557 6.557 0 0 0 2.919 5.463 6.565 6.565 0 0 1-2.975-.819v.081a6.565 6.565 0 0 0 5.269 6.437 6.574 6.574 0 0 1-2.968.112 6.588 6.588 0 0 0 6.131 4.563 13.17 13.17 0 0 1-9.725 2.719 18.568 18.568 0 0 0 10.069 2.95c12.075 0 18.681-10.006 18.681-18.681 0-.287-.006-.569-.019-.85A13.216 13.216 0 0 0 32 7.076z"/></symbol></defs></svg>