<svg aria-hidden="true" style="position: absolute; width: 0; height: 0; overflow: hidden;" version="1.1" xmlns="http://www.w3.org/2000/svg" xmlns:xlink="http://www.w3.org/1999/xlink">
<defs>
<symbol id="audio" viewBox="0 0 24 32">
<title>audio</title>
<path d="M5.651 22.944c-3.119 0-5.647-2.526-5.647-5.645v-3.761c0-3.117 2.528-5.645 5.647-5.645h1.882l9.412-7.528v30.106l-9.412-7.528h-1.882zM24.474 15.418c0 3.503-2.406 6.421-5.649 7.26v-4.019c1.122-0.651 1.882-1.852 1.882-3.241 0-1.387-0.76-2.588-1.882-3.241v-4.019c3.243 0.84 5.649 3.757 5.649 7.26z"></path>
</symbol>
<symbol id="heart" viewBox="0 0 34 32">
<title>heart</title>
<path d="M31.618 15.189l-14.551 15.078-14.551-15.078c-3.332-3.33-3.332-8.732 0-12.064 3.332-3.328 8.736-3.328 12.068 0l2.483 3.019 2.483-3.019c3.332-3.328 8.736-3.328 12.068 0 3.332 3.332 3.332 8.734 0 12.064z"></path>
</symbol>
<symbol id="options" viewBox="0 0 34 32">
<title>options</title>
<path d="M27.735 30.048h-21.331c-3.535 0-6.402-2.863-6.402-6.398v-10.662c0-3.533 2.867-6.396 6.402-6.396h1.623c-1.090 1.355-1.969 2.884-2.607 4.533-0.676 0.358-1.15 1.045-1.15 1.862v10.662c0 1.178 0.954 2.131 2.133 2.131h21.331c1.18 0 2.133-0.954 2.133-2.131v-5.333l4.267-3.196v8.529c0 3.535-2.863 6.398-6.4 6.398zM24.749 16.823c-0.375 0.286-0.828 0.431-1.28 0.431-0.324 0-0.651-0.077-0.954-0.226-0.723-0.363-1.18-1.099-1.18-1.905v-2.135c-5.57 0-10.295 3.565-12.055 8.529-0.474-1.333-0.745-2.767-0.745-4.262 0-7.068 5.732-12.796 12.8-12.796v-2.133c0-0.806 0.457-1.547 1.18-1.907 0.303-0.151 0.629-0.224 0.954-0.224 0.452 0 0.905 0.143 1.28 0.429l8.533 6.396c0.538 0.403 0.853 1.035 0.853 1.707 0 0.67-0.316 1.301-0.853 1.702l-8.533 6.396z"></path>
</symbol>
<symbol id="speach" viewBox="0 0 32 32">
<title>speach</title>
<path d="M26.007 25.973h-12l-4 5.997-4-5.997c-3.315 0-6.001-2.684-6.001-5.997v-13.993c0-3.313 2.686-5.997 6.001-5.997h20c3.313 0 5.999 2.684 5.999 5.997v13.993c0 3.313-2.686 5.997-5.999 5.997z"></path>
</symbol>
<symbol id="icon-instagram" viewBox="0 0 32 32">
<title>svg-instagram-logo-icon-4</title>
<path fill="#000" style="fill: var(--color1, #000)" d="M22.88 28.896h-13.76c-3.296 0-6.016-2.72-6.016-6.016v-13.76c0-3.296 2.72-6.016 6.016-6.016h13.76c3.296 0 6.016 2.72 6.016 6.016v13.76c0 3.296-2.72 6.016-6.016 6.016z"></path>
<path fill="#fff" style="fill: var(--color2, #fff)" d="M24.992 9.856h-1.728c-0.48 0-0.864-0.384-0.864-0.864v-1.728c0-0.48 0.384-0.864 0.864-0.864h1.728c0.48 0 0.864 0.384 0.864 0.864v1.728c-0.032 0.48-0.416 0.864-0.864 0.864z"></path>
<path fill="none" stroke="#fff" style="stroke: var(--color2, #fff)" stroke-linejoin="miter" stroke-linecap="butt" stroke-miterlimit="10" stroke-width="1.92" d="M2.56 12.16h26.88"></path>
<path fill="#000" style="fill: var(--color1, #000)" stroke="#fff" style="stroke: var(--color2, #fff)" stroke-linejoin="miter" stroke-linecap="butt" stroke-miterlimit="10" stroke-width="3.84" d="M21.6 16c0 3.093-2.507 5.6-5.6 5.6s-5.6-2.507-5.6-5.6c0-3.093 2.507-5.6 5.6-5.6s5.6 2.507 5.6 5.6z"></path>
</symbol>
<symbol id="icon-facebook" viewBox="0 0 32 32">
<title>facebook</title>
<path d="M19 6h5v-6h-5c-3.86 0-7 3.14-7 7v3h-4v6h4v16h6v-16h5l1-6h-6v-3c0-0.542 0.458-1 1-1z"></path>
</symbol>
<symbol id="icon-twitter" viewBox="0 0 32 32">
<title>twitter</title>
<path d="M32 7.075c-1.175 0.525-2.444 0.875-3.769 1.031 1.356-0.813 2.394-2.1 2.887-3.631-1.269 0.75-2.675 1.3-4.169 1.594-1.2-1.275-2.906-2.069-4.794-2.069-3.625 0-6.563 2.938-6.563 6.563 0 0.512 0.056 1.012 0.169 1.494-5.456-0.275-10.294-2.888-13.531-6.862-0.563 0.969-0.887 2.1-0.887 3.3 0 2.275 1.156 4.287 2.919 5.463-1.075-0.031-2.087-0.331-2.975-0.819 0 0.025 0 0.056 0 0.081 0 3.181 2.263 5.838 5.269 6.437-0.55 0.15-1.131 0.231-1.731 0.231-0.425 0-0.831-0.044-1.237-0.119 0.838 2.606 3.263 4.506 6.131 4.563-2.25 1.762-5.075 2.813-8.156 2.813-0.531 0-1.050-0.031-1.569-0.094 2.913 1.869 6.362 2.95 10.069 2.95 12.075 0 18.681-10.006 18.681-18.681 0-0.287-0.006-0.569-0.019-0.85 1.281-0.919 2.394-2.075 3.275-3.394z"></path>
</symbol>
</defs>
</svg>
